<svg width="57" height="52" viewBox="0 0 57 52" fill="none" xmlns="http://www.w3.org/2000/svg">
<path d="M27.2597 9.14352C27.0637 9.22872 25.7617 10.0665 24.3617 11.0179C21.6457 12.8781 21.1837 13.3325 21.0297 14.4543C20.8197 15.8459 21.7437 17.2517 23.1157 17.6493C23.7597 17.8197 23.9557 17.8055 25.1597 17.4931C25.3417 17.4505 25.3837 18.1037 25.4397 22.6477L25.5003 27.1414C25.5064 27.5978 25.6622 28.0395 25.9437 28.3987V28.3987C27.1617 29.9465 29.3177 29.9465 30.5357 28.3987V28.3987C30.8171 28.0397 30.971 27.5974 30.9733 27.1413L31.0117 19.4811C31.0397 11.4581 31.0397 11.1031 30.7737 10.5919C30.4377 9.91032 29.9897 9.48432 29.3317 9.20032C28.7437 8.95892 27.7917 8.93052 27.2597 9.14352Z" fill="black"/>
<path fill-rule="evenodd" clip-rule="evenodd" d="M31.6436 38.7823L34.7263 35.8423C35.8142 34.8078 35.8142 33.1383 34.7263 32.1039C33.648 31.0694 31.8823 31.0694 30.7944 32.1039L21.1847 41.2413L30.7944 50.3789C31.8823 51.4043 33.648 51.4043 34.7263 50.3789C35.8142 49.3445 35.8142 47.6657 34.7263 46.6313L31.6436 43.7005H42.9419C50.2611 43.7005 56.2062 38.0382 56.2062 31.0784V12.6128C56.2062 5.6531 50.2611 0 42.9419 0H13.274C5.94522 0 0 5.6531 0 12.6128V31.0784C0 38.0382 5.94522 43.7005 13.274 43.7005H14.9079C15.4602 43.7005 15.9079 43.2528 15.9079 42.7005V39.7823C15.9079 39.23 15.4602 38.7823 14.9079 38.7823H13.274C8.79847 38.7823 5.17241 35.325 5.17241 31.0784V12.6128C5.17241 8.36622 8.79847 4.90917 13.274 4.90917H27.5837H42.9419C47.4079 4.90917 51.0442 8.36622 51.0442 12.6128V31.0784C51.0442 35.325 47.4079 38.7823 42.9419 38.7823H31.6436Z" fill="black"/>
</svg>
