<svg width="58" height="52" viewBox="0 0 58 52" fill="none" xmlns="http://www.w3.org/2000/svg">
<path fill-rule="evenodd" clip-rule="evenodd" d="M32.5599 39.5149L35.6426 36.5749C36.7305 35.5405 36.7305 33.871 35.6426 32.8365C34.5643 31.8021 32.7986 31.8021 31.7107 32.8365L23.6253 40.5246C22.7961 41.313 22.7961 42.6349 23.6252 43.4233L31.7107 51.1116C32.7986 52.1369 34.5643 52.1369 35.6426 51.1116C36.7305 50.0771 36.7305 48.3984 35.6426 47.3639L32.5599 44.4331H43.8582C51.1774 44.4331 57.1225 38.7708 57.1225 31.8111V13.3455C57.1225 6.38576 51.1774 0.732666 43.8582 0.732666H14.1903C6.86151 0.732666 0.91629 6.38576 0.91629 13.3455V31.8111C0.91629 38.7708 6.86151 44.4331 14.1903 44.4331H14.8242C15.9288 44.4331 16.8242 43.5377 16.8242 42.4331V41.5149C16.8242 40.4104 15.9288 39.5149 14.8242 39.5149H14.1903C9.71476 39.5149 6.0887 36.0577 6.0887 31.8111V13.3455C6.0887 9.09889 9.71476 5.64184 14.1903 5.64184H28.5H43.8582C48.3242 5.64184 51.9605 9.09889 51.9605 13.3455V31.8111C51.9605 36.0577 48.3242 39.5149 43.8582 39.5149H32.5599Z" fill="black"/>
<path fill-rule="evenodd" clip-rule="evenodd" d="M32.5599 39.5149L35.6426 36.5749C36.7305 35.5405 36.7305 33.871 35.6426 32.8365C34.5643 31.8021 32.7986 31.8021 31.7107 32.8365L23.6253 40.5246C22.7961 41.313 22.7961 42.6349 23.6252 43.4233L31.7107 51.1116C32.7986 52.1369 34.5643 52.1369 35.6426 51.1116C36.7305 50.0771 36.7305 48.3984 35.6426 47.3639L32.5599 44.4331H43.8582C51.1774 44.4331 57.1225 38.7708 57.1225 31.8111V13.3455C57.1225 6.38576 51.1774 0.732666 43.8582 0.732666H14.1903C6.86151 0.732666 0.91629 6.38576 0.91629 13.3455V31.8111C0.91629 38.7708 6.86151 44.4331 14.1903 44.4331H14.8242C15.9288 44.4331 16.8242 43.5377 16.8242 42.4331V41.5149C16.8242 40.4104 15.9288 39.5149 14.8242 39.5149H14.1903C9.71476 39.5149 6.0887 36.0577 6.0887 31.8111V13.3455C6.0887 9.09889 9.71476 5.64184 14.1903 5.64184H28.5H43.8582C48.3242 5.64184 51.9605 9.09889 51.9605 13.3455V31.8111C51.9605 36.0577 48.3242 39.5149 43.8582 39.5149H32.5599Z" fill="black"/>
</svg>
