<svg width="35" height="35" viewBox="0 0 35 35" fill="none" xmlns="http://www.w3.org/2000/svg">
<path d="M17.5 0C27.165 0 35 7.83502 35 17.5C35 27.165 27.165 35 17.5 35C7.83502 35 0 27.165 0 17.5C0 7.83502 7.83502 0 17.5 0ZM12.6279 10C11.7289 10 11 10.7289 11 11.6279V23.0234C11.0001 23.9224 11.7289 24.6514 12.6279 24.6514H14.2559C15.1548 24.6513 15.8837 23.9224 15.8838 23.0234V11.6279C15.8838 10.7289 15.1549 10 14.2559 10H12.6279ZM20.7676 10C19.8685 10 19.1396 10.7289 19.1396 11.6279V23.0234C19.1397 23.9224 19.8686 24.6514 20.7676 24.6514H22.3955C23.2944 24.6513 24.0233 23.9224 24.0234 23.0234V11.6279C24.0234 10.7289 23.2945 10.0001 22.3955 10H20.7676Z" fill="#D9D9D9"/>
</svg>
